<svg width="200" height="200" xmlns="http://www.w3.org/2000/svg">
<style>
    rect {
        fill: black;
        stroke-width: 4;
        stroke: white;
    }

    .marked {
        fill: cyan;
        opacity: 1;
    }
</style>
<g><rect transform="translate(0, 0)" width="7" height="7" style="opacity: 1" class="svelte-1dfubxi"></rect><rect transform="translate(10, 0)" width="7" height="7" style="opacity: 1" class="svelte-1dfubxi"></rect><rect transform="translate(20, 0)" width="7" height="7" style="opacity: 1" class="svelte-1dfubxi"></rect><rect transform="translate(30, 0)" width="7" height="7" style="opacity: 1" class="svelte-1dfubxi"></rect><rect transform="translate(40, 0)" width="7" height="7" style="opacity: 1" class="svelte-1dfubxi"></rect><rect transform="translate(50, 0)" width="7" height="7" style="opacity: 1" class="svelte-1dfubxi"></rect><rect transform="translate(60, 0)" width="7" height="7" style="opacity: 1" class="svelte-1dfubxi"></rect><rect transform="translate(70, 0)" width="7" height="7" style="opacity: 1" class="svelte-1dfubxi"></rect><rect transform="translate(80, 0)" width="7" height="7" style="opacity: 1" class="svelte-1dfubxi"></rect><rect transform="translate(90, 0)" width="7" height="7" style="opacity: 1" class="svelte-1dfubxi"></rect><rect transform="translate(100, 0)" width="7" height="7" style="opacity: 1" class="svelte-1dfubxi"></rect><rect transform="translate(110, 0)" width="7" height="7" style="opacity: 1" class="svelte-1dfubxi"></rect><rect transform="translate(120, 0)" width="7" height="7" style="opacity: 1" class="svelte-1dfubxi"></rect><rect transform="translate(130, 0)" width="7" height="7" style="opacity: 1" class="svelte-1dfubxi"></rect><rect transform="translate(140, 0)" width="7" height="7" style="opacity: 1" class="svelte-1dfubxi"></rect><rect transform="translate(150, 0)" width="7" height="7" style="opacity: 1" class="svelte-1dfubxi"></rect><rect transform="translate(160, 0)" width="7" height="7" style="opacity: 1" class="svelte-1dfubxi"></rect><rect transform="translate(170, 0)" width="7" height="7" style="opacity: 1" class="svelte-1dfubxi"></rect><rect transform="translate(180, 0)" width="7" height="7" style="opacity: 1" class="svelte-1dfubxi"></rect><rect transform="translate(190, 0)" width="7" height="7" style="opacity: 1" class="svelte-1dfubxi"></rect><rect transform="translate(0, 10)" width="7" height="7" style="opacity: 1" class="svelte-1dfubxi"></rect><rect transform="translate(10, 10)" width="7" height="7" style="opacity: 1" class="svelte-1dfubxi"></rect><rect transform="translate(20, 10)" width="7" height="7" style="opacity: 1" class="svelte-1dfubxi"></rect><rect transform="translate(30, 10)" width="7" height="7" style="opacity: 1" class="svelte-1dfubxi"></rect><rect transform="translate(40, 10)" width="7" height="7" style="opacity: 1" class="svelte-1dfubxi"></rect><rect transform="translate(50, 10)" width="7" height="7" style="opacity: 1" class="svelte-1dfubxi"></rect><rect transform="translate(60, 10)" width="7" height="7" style="opacity: 1" class="svelte-1dfubxi"></rect><rect transform="translate(70, 10)" width="7" height="7" style="opacity: 1" class="svelte-1dfubxi"></rect><rect transform="translate(80, 10)" width="7" height="7" style="opacity: 1" class="svelte-1dfubxi"></rect><rect transform="translate(90, 10)" width="7" height="7" style="opacity: 1" class="svelte-1dfubxi"></rect><rect transform="translate(100, 10)" width="7" height="7" style="opacity: 1" class="svelte-1dfubxi"></rect><rect transform="translate(110, 10)" width="7" height="7" style="opacity: 1" class="svelte-1dfubxi"></rect><rect transform="translate(120, 10)" width="7" height="7" style="opacity: 1" class="svelte-1dfubxi"></rect><rect transform="translate(130, 10)" width="7" height="7" style="opacity: 1" class="svelte-1dfubxi"></rect><rect transform="translate(140, 10)" width="7" height="7" style="opacity: 1" class="svelte-1dfubxi"></rect><rect transform="translate(150, 10)" width="7" height="7" style="opacity: 1" class="svelte-1dfubxi"></rect><rect transform="translate(160, 10)" width="7" height="7" style="opacity: 1" class="svelte-1dfubxi"></rect><rect transform="translate(170, 10)" width="7" height="7" style="opacity: 1" class="svelte-1dfubxi"></rect><rect transform="translate(180, 10)" width="7" height="7" style="opacity: 1" class="svelte-1dfubxi"></rect><rect transform="translate(190, 10)" width="7" height="7" style="opacity: 1" class="svelte-1dfubxi"></rect><rect transform="translate(0, 20)" width="7" height="7" style="opacity: 1" class="svelte-1dfubxi"></rect><rect transform="translate(10, 20)" width="7" height="7" style="opacity: 1" class="svelte-1dfubxi"></rect><rect transform="translate(20, 20)" width="7" height="7" style="opacity: 1" class="svelte-1dfubxi"></rect><rect transform="translate(30, 20)" width="7" height="7" style="opacity: 1" class="svelte-1dfubxi marked"></rect><rect transform="translate(40, 20)" width="7" height="7" style="opacity: 1" class="svelte-1dfubxi marked"></rect><rect transform="translate(50, 20)" width="7" height="7" style="opacity: 1" class="svelte-1dfubxi marked"></rect><rect transform="translate(60, 20)" width="7" height="7" style="opacity: 1" class="svelte-1dfubxi marked"></rect><rect transform="translate(70, 20)" width="7" height="7" style="opacity: 1" class="svelte-1dfubxi marked"></rect><rect transform="translate(80, 20)" width="7" height="7" style="opacity: 1" class="svelte-1dfubxi marked"></rect><rect transform="translate(90, 20)" width="7" height="7" style="opacity: 1" class="svelte-1dfubxi marked"></rect><rect transform="translate(100, 20)" width="7" height="7" style="opacity: 1" class="svelte-1dfubxi"></rect><rect transform="translate(110, 20)" width="7" height="7" style="opacity: 1" class="svelte-1dfubxi marked"></rect><rect transform="translate(120, 20)" width="7" height="7" style="opacity: 1" class="svelte-1dfubxi marked"></rect><rect transform="translate(130, 20)" width="7" height="7" style="opacity: 1" class="svelte-1dfubxi marked"></rect><rect transform="translate(140, 20)" width="7" height="7" style="opacity: 1" class="svelte-1dfubxi marked"></rect><rect transform="translate(150, 20)" width="7" height="7" style="opacity: 1" class="svelte-1dfubxi"></rect><rect transform="translate(160, 20)" width="7" height="7" style="opacity: 1" class="svelte-1dfubxi"></rect><rect transform="translate(170, 20)" width="7" height="7" style="opacity: 1" class="svelte-1dfubxi"></rect><rect transform="translate(180, 20)" width="7" height="7" style="opacity: 1" class="svelte-1dfubxi"></rect><rect transform="translate(190, 20)" width="7" height="7" style="opacity: 1" class="svelte-1dfubxi"></rect><rect transform="translate(0, 30)" width="7" height="7" style="opacity: 1" class="svelte-1dfubxi"></rect><rect transform="translate(10, 30)" width="7" height="7" style="opacity: 1" class="svelte-1dfubxi"></rect><rect transform="translate(20, 30)" width="7" height="7" style="opacity: 1" class="svelte-1dfubxi"></rect><rect transform="translate(30, 30)" width="7" height="7" style="opacity: 1" class="svelte-1dfubxi marked"></rect><rect transform="translate(40, 30)" width="7" height="7" style="opacity: 1" class="svelte-1dfubxi marked"></rect><rect transform="translate(50, 30)" width="7" height="7" style="opacity: 1" class="svelte-1dfubxi marked"></rect><rect transform="translate(60, 30)" width="7" height="7" style="opacity: 1" class="svelte-1dfubxi marked"></rect><rect transform="translate(70, 30)" width="7" height="7" style="opacity: 1" class="svelte-1dfubxi marked"></rect><rect transform="translate(80, 30)" width="7" height="7" style="opacity: 1" class="svelte-1dfubxi marked"></rect><rect transform="translate(90, 30)" width="7" height="7" style="opacity: 1" class="svelte-1dfubxi marked"></rect><rect transform="translate(100, 30)" width="7" height="7" style="opacity: 1" class="svelte-1dfubxi"></rect><rect transform="translate(110, 30)" width="7" height="7" style="opacity: 1" class="svelte-1dfubxi marked"></rect><rect transform="translate(120, 30)" width="7" height="7" style="opacity: 1" class="svelte-1dfubxi marked"></rect><rect transform="translate(130, 30)" width="7" height="7" style="opacity: 1" class="svelte-1dfubxi"></rect><rect transform="translate(140, 30)" width="7" height="7" style="opacity: 1" class="svelte-1dfubxi"></rect><rect transform="translate(150, 30)" width="7" height="7" style="opacity: 1" class="svelte-1dfubxi marked"></rect><rect transform="translate(160, 30)" width="7" height="7" style="opacity: 1" class="svelte-1dfubxi"></rect><rect transform="translate(170, 30)" width="7" height="7" style="opacity: 1" class="svelte-1dfubxi"></rect><rect transform="translate(180, 30)" width="7" height="7" style="opacity: 1" class="svelte-1dfubxi"></rect><rect transform="translate(190, 30)" width="7" height="7" style="opacity: 1" class="svelte-1dfubxi"></rect><rect transform="translate(0, 40)" width="7" height="7" style="opacity: 1" class="svelte-1dfubxi"></rect><rect transform="translate(10, 40)" width="7" height="7" style="opacity: 1" class="svelte-1dfubxi"></rect><rect transform="translate(20, 40)" width="7" height="7" style="opacity: 1" class="svelte-1dfubxi"></rect><rect transform="translate(30, 40)" width="7" height="7" style="opacity: 1" class="svelte-1dfubxi marked"></rect><rect transform="translate(40, 40)" width="7" height="7" style="opacity: 1" class="svelte-1dfubxi marked"></rect><rect transform="translate(50, 40)" width="7" height="7" style="opacity: 1" class="svelte-1dfubxi"></rect><rect transform="translate(60, 40)" width="7" height="7" style="opacity: 1" class="svelte-1dfubxi"></rect><rect transform="translate(70, 40)" width="7" height="7" style="opacity: 1" class="svelte-1dfubxi"></rect><rect transform="translate(80, 40)" width="7" height="7" style="opacity: 1" class="svelte-1dfubxi"></rect><rect transform="translate(90, 40)" width="7" height="7" style="opacity: 1" class="svelte-1dfubxi"></rect><rect transform="translate(100, 40)" width="7" height="7" style="opacity: 1" class="svelte-1dfubxi"></rect><rect transform="translate(110, 40)" width="7" height="7" style="opacity: 1" class="svelte-1dfubxi marked"></rect><rect transform="translate(120, 40)" width="7" height="7" style="opacity: 1" class="svelte-1dfubxi marked"></rect><rect transform="translate(130, 40)" width="7" height="7" style="opacity: 1" class="svelte-1dfubxi"></rect><rect transform="translate(140, 40)" width="7" height="7" style="opacity: 1" class="svelte-1dfubxi"></rect><rect transform="translate(150, 40)" width="7" height="7" style="opacity: 1" class="svelte-1dfubxi marked"></rect><rect transform="translate(160, 40)" width="7" height="7" style="opacity: 1" class="svelte-1dfubxi marked"></rect><rect transform="translate(170, 40)" width="7" height="7" style="opacity: 1" class="svelte-1dfubxi"></rect><rect transform="translate(180, 40)" width="7" height="7" style="opacity: 1" class="svelte-1dfubxi"></rect><rect transform="translate(190, 40)" width="7" height="7" style="opacity: 1" class="svelte-1dfubxi"></rect><rect transform="translate(0, 50)" width="7" height="7" style="opacity: 1" class="svelte-1dfubxi"></rect><rect transform="translate(10, 50)" width="7" height="7" style="opacity: 1" class="svelte-1dfubxi"></rect><rect transform="translate(20, 50)" width="7" height="7" style="opacity: 1" class="svelte-1dfubxi"></rect><rect transform="translate(30, 50)" width="7" height="7" style="opacity: 1" class="svelte-1dfubxi marked"></rect><rect transform="translate(40, 50)" width="7" height="7" style="opacity: 1" class="svelte-1dfubxi marked"></rect><rect transform="translate(50, 50)" width="7" height="7" style="opacity: 1" class="svelte-1dfubxi"></rect><rect transform="translate(60, 50)" width="7" height="7" style="opacity: 1" class="svelte-1dfubxi"></rect><rect transform="translate(70, 50)" width="7" height="7" style="opacity: 1" class="svelte-1dfubxi"></rect><rect transform="translate(80, 50)" width="7" height="7" style="opacity: 1" class="svelte-1dfubxi"></rect><rect transform="translate(90, 50)" width="7" height="7" style="opacity: 1" class="svelte-1dfubxi"></rect><rect transform="translate(100, 50)" width="7" height="7" style="opacity: 1" class="svelte-1dfubxi"></rect><rect transform="translate(110, 50)" width="7" height="7" style="opacity: 1" class="svelte-1dfubxi marked"></rect><rect transform="translate(120, 50)" width="7" height="7" style="opacity: 1" class="svelte-1dfubxi marked"></rect><rect transform="translate(130, 50)" width="7" height="7" style="opacity: 1" class="svelte-1dfubxi"></rect><rect transform="translate(140, 50)" width="7" height="7" style="opacity: 1" class="svelte-1dfubxi"></rect><rect transform="translate(150, 50)" width="7" height="7" style="opacity: 1" class="svelte-1dfubxi marked"></rect><rect transform="translate(160, 50)" width="7" height="7" style="opacity: 1" class="svelte-1dfubxi marked"></rect><rect transform="translate(170, 50)" width="7" height="7" style="opacity: 1" class="svelte-1dfubxi"></rect><rect transform="translate(180, 50)" width="7" height="7" style="opacity: 1" class="svelte-1dfubxi"></rect><rect transform="translate(190, 50)" width="7" height="7" style="opacity: 1" class="svelte-1dfubxi"></rect><rect transform="translate(0, 60)" width="7" height="7" style="opacity: 1" class="svelte-1dfubxi"></rect><rect transform="translate(10, 60)" width="7" height="7" style="opacity: 1" class="svelte-1dfubxi"></rect><rect transform="translate(20, 60)" width="7" height="7" style="opacity: 1" class="svelte-1dfubxi"></rect><rect transform="translate(30, 60)" width="7" height="7" style="opacity: 1" class="svelte-1dfubxi marked"></rect><rect transform="translate(40, 60)" width="7" height="7" style="opacity: 1" class="svelte-1dfubxi marked"></rect><rect transform="translate(50, 60)" width="7" height="7" style="opacity: 1" class="svelte-1dfubxi"></rect><rect transform="translate(60, 60)" width="7" height="7" style="opacity: 1" class="svelte-1dfubxi"></rect><rect transform="translate(70, 60)" width="7" height="7" style="opacity: 1" class="svelte-1dfubxi"></rect><rect transform="translate(80, 60)" width="7" height="7" style="opacity: 1" class="svelte-1dfubxi"></rect><rect transform="translate(90, 60)" width="7" height="7" style="opacity: 1" class="svelte-1dfubxi"></rect><rect transform="translate(100, 60)" width="7" height="7" style="opacity: 1" class="svelte-1dfubxi"></rect><rect transform="translate(110, 60)" width="7" height="7" style="opacity: 1" class="svelte-1dfubxi marked"></rect><rect transform="translate(120, 60)" width="7" height="7" style="opacity: 1" class="svelte-1dfubxi marked"></rect><rect transform="translate(130, 60)" width="7" height="7" style="opacity: 1" class="svelte-1dfubxi"></rect><rect transform="translate(140, 60)" width="7" height="7" style="opacity: 1" class="svelte-1dfubxi"></rect><rect transform="translate(150, 60)" width="7" height="7" style="opacity: 1" class="svelte-1dfubxi marked"></rect><rect transform="translate(160, 60)" width="7" height="7" style="opacity: 1" class="svelte-1dfubxi marked"></rect><rect transform="translate(170, 60)" width="7" height="7" style="opacity: 1" class="svelte-1dfubxi"></rect><rect transform="translate(180, 60)" width="7" height="7" style="opacity: 1" class="svelte-1dfubxi"></rect><rect transform="translate(190, 60)" width="7" height="7" style="opacity: 1" class="svelte-1dfubxi"></rect><rect transform="translate(0, 70)" width="7" height="7" style="opacity: 1" class="svelte-1dfubxi"></rect><rect transform="translate(10, 70)" width="7" height="7" style="opacity: 1" class="svelte-1dfubxi"></rect><rect transform="translate(20, 70)" width="7" height="7" style="opacity: 1" class="svelte-1dfubxi"></rect><rect transform="translate(30, 70)" width="7" height="7" style="opacity: 1" class="svelte-1dfubxi marked"></rect><rect transform="translate(40, 70)" width="7" height="7" style="opacity: 1" class="svelte-1dfubxi marked"></rect><rect transform="translate(50, 70)" width="7" height="7" style="opacity: 1" class="svelte-1dfubxi marked"></rect><rect transform="translate(60, 70)" width="7" height="7" style="opacity: 1" class="svelte-1dfubxi marked"></rect><rect transform="translate(70, 70)" width="7" height="7" style="opacity: 1" class="svelte-1dfubxi marked"></rect><rect transform="translate(80, 70)" width="7" height="7" style="opacity: 1" class="svelte-1dfubxi marked"></rect><rect transform="translate(90, 70)" width="7" height="7" style="opacity: 1" class="svelte-1dfubxi"></rect><rect transform="translate(100, 70)" width="7" height="7" style="opacity: 1" class="svelte-1dfubxi"></rect><rect transform="translate(110, 70)" width="7" height="7" style="opacity: 1" class="svelte-1dfubxi marked"></rect><rect transform="translate(120, 70)" width="7" height="7" style="opacity: 1" class="svelte-1dfubxi marked"></rect><rect transform="translate(130, 70)" width="7" height="7" style="opacity: 1" class="svelte-1dfubxi"></rect><rect transform="translate(140, 70)" width="7" height="7" style="opacity: 1" class="svelte-1dfubxi"></rect><rect transform="translate(150, 70)" width="7" height="7" style="opacity: 1" class="svelte-1dfubxi marked"></rect><rect transform="translate(160, 70)" width="7" height="7" style="opacity: 1" class="svelte-1dfubxi marked"></rect><rect transform="translate(170, 70)" width="7" height="7" style="opacity: 1" class="svelte-1dfubxi"></rect><rect transform="translate(180, 70)" width="7" height="7" style="opacity: 1" class="svelte-1dfubxi"></rect><rect transform="translate(190, 70)" width="7" height="7" style="opacity: 1" class="svelte-1dfubxi"></rect><rect transform="translate(0, 80)" width="7" height="7" style="opacity: 1" class="svelte-1dfubxi"></rect><rect transform="translate(10, 80)" width="7" height="7" style="opacity: 1" class="svelte-1dfubxi"></rect><rect transform="translate(20, 80)" width="7" height="7" style="opacity: 1" class="svelte-1dfubxi"></rect><rect transform="translate(30, 80)" width="7" height="7" style="opacity: 1" class="svelte-1dfubxi marked"></rect><rect transform="translate(40, 80)" width="7" height="7" style="opacity: 1" class="svelte-1dfubxi marked"></rect><rect transform="translate(50, 80)" width="7" height="7" style="opacity: 1" class="svelte-1dfubxi marked"></rect><rect transform="translate(60, 80)" width="7" height="7" style="opacity: 1" class="svelte-1dfubxi marked"></rect><rect transform="translate(70, 80)" width="7" height="7" style="opacity: 1" class="svelte-1dfubxi marked"></rect><rect transform="translate(80, 80)" width="7" height="7" style="opacity: 1" class="svelte-1dfubxi marked"></rect><rect transform="translate(90, 80)" width="7" height="7" style="opacity: 1" class="svelte-1dfubxi"></rect><rect transform="translate(100, 80)" width="7" height="7" style="opacity: 1" class="svelte-1dfubxi"></rect><rect transform="translate(110, 80)" width="7" height="7" style="opacity: 1" class="svelte-1dfubxi marked"></rect><rect transform="translate(120, 80)" width="7" height="7" style="opacity: 1" class="svelte-1dfubxi marked"></rect><rect transform="translate(130, 80)" width="7" height="7" style="opacity: 1" class="svelte-1dfubxi marked"></rect><rect transform="translate(140, 80)" width="7" height="7" style="opacity: 1" class="svelte-1dfubxi marked"></rect><rect transform="translate(150, 80)" width="7" height="7" style="opacity: 1" class="svelte-1dfubxi"></rect><rect transform="translate(160, 80)" width="7" height="7" style="opacity: 1" class="svelte-1dfubxi"></rect><rect transform="translate(170, 80)" width="7" height="7" style="opacity: 1" class="svelte-1dfubxi"></rect><rect transform="translate(180, 80)" width="7" height="7" style="opacity: 1" class="svelte-1dfubxi"></rect><rect transform="translate(190, 80)" width="7" height="7" style="opacity: 1" class="svelte-1dfubxi"></rect><rect transform="translate(0, 90)" width="7" height="7" style="opacity: 1" class="svelte-1dfubxi"></rect><rect transform="translate(10, 90)" width="7" height="7" style="opacity: 1" class="svelte-1dfubxi"></rect><rect transform="translate(20, 90)" width="7" height="7" style="opacity: 1" class="svelte-1dfubxi"></rect><rect transform="translate(30, 90)" width="7" height="7" style="opacity: 1" class="svelte-1dfubxi marked"></rect><rect transform="translate(40, 90)" width="7" height="7" style="opacity: 1" class="svelte-1dfubxi marked"></rect><rect transform="translate(50, 90)" width="7" height="7" style="opacity: 1" class="svelte-1dfubxi"></rect><rect transform="translate(60, 90)" width="7" height="7" style="opacity: 1" class="svelte-1dfubxi"></rect><rect transform="translate(70, 90)" width="7" height="7" style="opacity: 1" class="svelte-1dfubxi"></rect><rect transform="translate(80, 90)" width="7" height="7" style="opacity: 1" class="svelte-1dfubxi"></rect><rect transform="translate(90, 90)" width="7" height="7" style="opacity: 1" class="svelte-1dfubxi"></rect><rect transform="translate(100, 90)" width="7" height="7" style="opacity: 1" class="svelte-1dfubxi"></rect><rect transform="translate(110, 90)" width="7" height="7" style="opacity: 1" class="svelte-1dfubxi marked"></rect><rect transform="translate(120, 90)" width="7" height="7" style="opacity: 1" class="svelte-1dfubxi marked"></rect><rect transform="translate(130, 90)" width="7" height="7" style="opacity: 1" class="svelte-1dfubxi marked"></rect><rect transform="translate(140, 90)" width="7" height="7" style="opacity: 1" class="svelte-1dfubxi marked"></rect><rect transform="translate(150, 90)" width="7" height="7" style="opacity: 1" class="svelte-1dfubxi marked"></rect><rect transform="translate(160, 90)" width="7" height="7" style="opacity: 1" class="svelte-1dfubxi"></rect><rect transform="translate(170, 90)" width="7" height="7" style="opacity: 1" class="svelte-1dfubxi"></rect><rect transform="translate(180, 90)" width="7" height="7" style="opacity: 1" class="svelte-1dfubxi"></rect><rect transform="translate(190, 90)" width="7" height="7" style="opacity: 1" class="svelte-1dfubxi"></rect><rect transform="translate(0, 100)" width="7" height="7" style="opacity: 1" class="svelte-1dfubxi"></rect><rect transform="translate(10, 100)" width="7" height="7" style="opacity: 1" class="svelte-1dfubxi"></rect><rect transform="translate(20, 100)" width="7" height="7" style="opacity: 1" class="svelte-1dfubxi"></rect><rect transform="translate(30, 100)" width="7" height="7" style="opacity: 1" class="svelte-1dfubxi marked"></rect><rect transform="translate(40, 100)" width="7" height="7" style="opacity: 1" class="svelte-1dfubxi marked"></rect><rect transform="translate(50, 100)" width="7" height="7" style="opacity: 1" class="svelte-1dfubxi"></rect><rect transform="translate(60, 100)" width="7" height="7" style="opacity: 1" class="svelte-1dfubxi"></rect><rect transform="translate(70, 100)" width="7" height="7" style="opacity: 1" class="svelte-1dfubxi"></rect><rect transform="translate(80, 100)" width="7" height="7" style="opacity: 1" class="svelte-1dfubxi"></rect><rect transform="translate(90, 100)" width="7" height="7" style="opacity: 1" class="svelte-1dfubxi"></rect><rect transform="translate(100, 100)" width="7" height="7" style="opacity: 1" class="svelte-1dfubxi"></rect><rect transform="translate(110, 100)" width="7" height="7" style="opacity: 1" class="svelte-1dfubxi marked"></rect><rect transform="translate(120, 100)" width="7" height="7" style="opacity: 1" class="svelte-1dfubxi marked"></rect><rect transform="translate(130, 100)" width="7" height="7" style="opacity: 1" class="svelte-1dfubxi"></rect><rect transform="translate(140, 100)" width="7" height="7" style="opacity: 1" class="svelte-1dfubxi"></rect><rect transform="translate(150, 100)" width="7" height="7" style="opacity: 1" class="svelte-1dfubxi"></rect><rect transform="translate(160, 100)" width="7" height="7" style="opacity: 1" class="svelte-1dfubxi marked"></rect><rect transform="translate(170, 100)" width="7" height="7" style="opacity: 1" class="svelte-1dfubxi"></rect><rect transform="translate(180, 100)" width="7" height="7" style="opacity: 1" class="svelte-1dfubxi"></rect><rect transform="translate(190, 100)" width="7" height="7" style="opacity: 1" class="svelte-1dfubxi"></rect><rect transform="translate(0, 110)" width="7" height="7" style="opacity: 1" class="svelte-1dfubxi"></rect><rect transform="translate(10, 110)" width="7" height="7" style="opacity: 1" class="svelte-1dfubxi"></rect><rect transform="translate(20, 110)" width="7" height="7" style="opacity: 1" class="svelte-1dfubxi"></rect><rect transform="translate(30, 110)" width="7" height="7" style="opacity: 1" class="svelte-1dfubxi marked"></rect><rect transform="translate(40, 110)" width="7" height="7" style="opacity: 1" class="svelte-1dfubxi marked"></rect><rect transform="translate(50, 110)" width="7" height="7" style="opacity: 1" class="svelte-1dfubxi"></rect><rect transform="translate(60, 110)" width="7" height="7" style="opacity: 1" class="svelte-1dfubxi"></rect><rect transform="translate(70, 110)" width="7" height="7" style="opacity: 1" class="svelte-1dfubxi"></rect><rect transform="translate(80, 110)" width="7" height="7" style="opacity: 1" class="svelte-1dfubxi"></rect><rect transform="translate(90, 110)" width="7" height="7" style="opacity: 1" class="svelte-1dfubxi"></rect><rect transform="translate(100, 110)" width="7" height="7" style="opacity: 1" class="svelte-1dfubxi"></rect><rect transform="translate(110, 110)" width="7" height="7" style="opacity: 1" class="svelte-1dfubxi marked"></rect><rect transform="translate(120, 110)" width="7" height="7" style="opacity: 1" class="svelte-1dfubxi marked"></rect><rect transform="translate(130, 110)" width="7" height="7" style="opacity: 1" class="svelte-1dfubxi"></rect><rect transform="translate(140, 110)" width="7" height="7" style="opacity: 1" class="svelte-1dfubxi"></rect><rect transform="translate(150, 110)" width="7" height="7" style="opacity: 1" class="svelte-1dfubxi"></rect><rect transform="translate(160, 110)" width="7" height="7" style="opacity: 1" class="svelte-1dfubxi marked"></rect><rect transform="translate(170, 110)" width="7" height="7" style="opacity: 1" class="svelte-1dfubxi marked"></rect><rect transform="translate(180, 110)" width="7" height="7" style="opacity: 1" class="svelte-1dfubxi"></rect><rect transform="translate(190, 110)" width="7" height="7" style="opacity: 1" class="svelte-1dfubxi"></rect><rect transform="translate(0, 120)" width="7" height="7" style="opacity: 1" class="svelte-1dfubxi"></rect><rect transform="translate(10, 120)" width="7" height="7" style="opacity: 1" class="svelte-1dfubxi"></rect><rect transform="translate(20, 120)" width="7" height="7" style="opacity: 1" class="svelte-1dfubxi"></rect><rect transform="translate(30, 120)" width="7" height="7" style="opacity: 1" class="svelte-1dfubxi marked"></rect><rect transform="translate(40, 120)" width="7" height="7" style="opacity: 1" class="svelte-1dfubxi marked"></rect><rect transform="translate(50, 120)" width="7" height="7" style="opacity: 1" class="svelte-1dfubxi"></rect><rect transform="translate(60, 120)" width="7" height="7" style="opacity: 1" class="svelte-1dfubxi"></rect><rect transform="translate(70, 120)" width="7" height="7" style="opacity: 1" class="svelte-1dfubxi"></rect><rect transform="translate(80, 120)" width="7" height="7" style="opacity: 1" class="svelte-1dfubxi"></rect><rect transform="translate(90, 120)" width="7" height="7" style="opacity: 1" class="svelte-1dfubxi"></rect><rect transform="translate(100, 120)" width="7" height="7" style="opacity: 1" class="svelte-1dfubxi"></rect><rect transform="translate(110, 120)" width="7" height="7" style="opacity: 1" class="svelte-1dfubxi marked"></rect><rect transform="translate(120, 120)" width="7" height="7" style="opacity: 1" class="svelte-1dfubxi marked"></rect><rect transform="translate(130, 120)" width="7" height="7" style="opacity: 1" class="svelte-1dfubxi"></rect><rect transform="translate(140, 120)" width="7" height="7" style="opacity: 1" class="svelte-1dfubxi"></rect><rect transform="translate(150, 120)" width="7" height="7" style="opacity: 1" class="svelte-1dfubxi"></rect><rect transform="translate(160, 120)" width="7" height="7" style="opacity: 1" class="svelte-1dfubxi marked"></rect><rect transform="translate(170, 120)" width="7" height="7" style="opacity: 1" class="svelte-1dfubxi marked"></rect><rect transform="translate(180, 120)" width="7" height="7" style="opacity: 1" class="svelte-1dfubxi"></rect><rect transform="translate(190, 120)" width="7" height="7" style="opacity: 1" class="svelte-1dfubxi"></rect><rect transform="translate(0, 130)" width="7" height="7" style="opacity: 1" class="svelte-1dfubxi"></rect><rect transform="translate(10, 130)" width="7" height="7" style="opacity: 1" class="svelte-1dfubxi"></rect><rect transform="translate(20, 130)" width="7" height="7" style="opacity: 1" class="svelte-1dfubxi"></rect><rect transform="translate(30, 130)" width="7" height="7" style="opacity: 1" class="svelte-1dfubxi marked"></rect><rect transform="translate(40, 130)" width="7" height="7" style="opacity: 1" class="svelte-1dfubxi marked"></rect><rect transform="translate(50, 130)" width="7" height="7" style="opacity: 1" class="svelte-1dfubxi"></rect><rect transform="translate(60, 130)" width="7" height="7" style="opacity: 1" class="svelte-1dfubxi"></rect><rect transform="translate(70, 130)" width="7" height="7" style="opacity: 1" class="svelte-1dfubxi"></rect><rect transform="translate(80, 130)" width="7" height="7" style="opacity: 1" class="svelte-1dfubxi"></rect><rect transform="translate(90, 130)" width="7" height="7" style="opacity: 1" class="svelte-1dfubxi"></rect><rect transform="translate(100, 130)" width="7" height="7" style="opacity: 1" class="svelte-1dfubxi"></rect><rect transform="translate(110, 130)" width="7" height="7" style="opacity: 1" class="svelte-1dfubxi marked"></rect><rect transform="translate(120, 130)" width="7" height="7" style="opacity: 1" class="svelte-1dfubxi marked"></rect><rect transform="translate(130, 130)" width="7" height="7" style="opacity: 1" class="svelte-1dfubxi"></rect><rect transform="translate(140, 130)" width="7" height="7" style="opacity: 1" class="svelte-1dfubxi"></rect><rect transform="translate(150, 130)" width="7" height="7" style="opacity: 1" class="svelte-1dfubxi"></rect><rect transform="translate(160, 130)" width="7" height="7" style="opacity: 1" class="svelte-1dfubxi marked"></rect><rect transform="translate(170, 130)" width="7" height="7" style="opacity: 1" class="svelte-1dfubxi marked"></rect><rect transform="translate(180, 130)" width="7" height="7" style="opacity: 1" class="svelte-1dfubxi"></rect><rect transform="translate(190, 130)" width="7" height="7" style="opacity: 1" class="svelte-1dfubxi"></rect><rect transform="translate(0, 140)" width="7" height="7" style="opacity: 1" class="svelte-1dfubxi"></rect><rect transform="translate(10, 140)" width="7" height="7" style="opacity: 1" class="svelte-1dfubxi"></rect><rect transform="translate(20, 140)" width="7" height="7" style="opacity: 1" class="svelte-1dfubxi"></rect><rect transform="translate(30, 140)" width="7" height="7" style="opacity: 1" class="svelte-1dfubxi marked"></rect><rect transform="translate(40, 140)" width="7" height="7" style="opacity: 1" class="svelte-1dfubxi marked"></rect><rect transform="translate(50, 140)" width="7" height="7" style="opacity: 1" class="svelte-1dfubxi"></rect><rect transform="translate(60, 140)" width="7" height="7" style="opacity: 1" class="svelte-1dfubxi"></rect><rect transform="translate(70, 140)" width="7" height="7" style="opacity: 1" class="svelte-1dfubxi"></rect><rect transform="translate(80, 140)" width="7" height="7" style="opacity: 1" class="svelte-1dfubxi"></rect><rect transform="translate(90, 140)" width="7" height="7" style="opacity: 1" class="svelte-1dfubxi"></rect><rect transform="translate(100, 140)" width="7" height="7" style="opacity: 1" class="svelte-1dfubxi"></rect><rect transform="translate(110, 140)" width="7" height="7" style="opacity: 1" class="svelte-1dfubxi marked"></rect><rect transform="translate(120, 140)" width="7" height="7" style="opacity: 1" class="svelte-1dfubxi marked"></rect><rect transform="translate(130, 140)" width="7" height="7" style="opacity: 1" class="svelte-1dfubxi"></rect><rect transform="translate(140, 140)" width="7" height="7" style="opacity: 1" class="svelte-1dfubxi"></rect><rect transform="translate(150, 140)" width="7" height="7" style="opacity: 1" class="svelte-1dfubxi"></rect><rect transform="translate(160, 140)" width="7" height="7" style="opacity: 1" class="svelte-1dfubxi marked"></rect><rect transform="translate(170, 140)" width="7" height="7" style="opacity: 1" class="svelte-1dfubxi marked"></rect><rect transform="translate(180, 140)" width="7" height="7" style="opacity: 1" class="svelte-1dfubxi"></rect><rect transform="translate(190, 140)" width="7" height="7" style="opacity: 1" class="svelte-1dfubxi"></rect><rect transform="translate(0, 150)" width="7" height="7" style="opacity: 1" class="svelte-1dfubxi"></rect><rect transform="translate(10, 150)" width="7" height="7" style="opacity: 1" class="svelte-1dfubxi"></rect><rect transform="translate(20, 150)" width="7" height="7" style="opacity: 1" class="svelte-1dfubxi"></rect><rect transform="translate(30, 150)" width="7" height="7" style="opacity: 1" class="svelte-1dfubxi marked"></rect><rect transform="translate(40, 150)" width="7" height="7" style="opacity: 1" class="svelte-1dfubxi marked"></rect><rect transform="translate(50, 150)" width="7" height="7" style="opacity: 1" class="svelte-1dfubxi"></rect><rect transform="translate(60, 150)" width="7" height="7" style="opacity: 1" class="svelte-1dfubxi"></rect><rect transform="translate(70, 150)" width="7" height="7" style="opacity: 1" class="svelte-1dfubxi"></rect><rect transform="translate(80, 150)" width="7" height="7" style="opacity: 1" class="svelte-1dfubxi"></rect><rect transform="translate(90, 150)" width="7" height="7" style="opacity: 1" class="svelte-1dfubxi"></rect><rect transform="translate(100, 150)" width="7" height="7" style="opacity: 1" class="svelte-1dfubxi"></rect><rect transform="translate(110, 150)" width="7" height="7" style="opacity: 1" class="svelte-1dfubxi marked"></rect><rect transform="translate(120, 150)" width="7" height="7" style="opacity: 1" class="svelte-1dfubxi marked"></rect><rect transform="translate(130, 150)" width="7" height="7" style="opacity: 1" class="svelte-1dfubxi"></rect><rect transform="translate(140, 150)" width="7" height="7" style="opacity: 1" class="svelte-1dfubxi"></rect><rect transform="translate(150, 150)" width="7" height="7" style="opacity: 1" class="svelte-1dfubxi"></rect><rect transform="translate(160, 150)" width="7" height="7" style="opacity: 1" class="svelte-1dfubxi marked"></rect><rect transform="translate(170, 150)" width="7" height="7" style="opacity: 1" class="svelte-1dfubxi marked"></rect><rect transform="translate(180, 150)" width="7" height="7" style="opacity: 1" class="svelte-1dfubxi"></rect><rect transform="translate(190, 150)" width="7" height="7" style="opacity: 1" class="svelte-1dfubxi"></rect><rect transform="translate(0, 160)" width="7" height="7" style="opacity: 1" class="svelte-1dfubxi"></rect><rect transform="translate(10, 160)" width="7" height="7" style="opacity: 1" class="svelte-1dfubxi"></rect><rect transform="translate(20, 160)" width="7" height="7" style="opacity: 1" class="svelte-1dfubxi"></rect><rect transform="translate(30, 160)" width="7" height="7" style="opacity: 1" class="svelte-1dfubxi marked"></rect><rect transform="translate(40, 160)" width="7" height="7" style="opacity: 1" class="svelte-1dfubxi marked"></rect><rect transform="translate(50, 160)" width="7" height="7" style="opacity: 1" class="svelte-1dfubxi"></rect><rect transform="translate(60, 160)" width="7" height="7" style="opacity: 1" class="svelte-1dfubxi"></rect><rect transform="translate(70, 160)" width="7" height="7" style="opacity: 1" class="svelte-1dfubxi"></rect><rect transform="translate(80, 160)" width="7" height="7" style="opacity: 1" class="svelte-1dfubxi"></rect><rect transform="translate(90, 160)" width="7" height="7" style="opacity: 1" class="svelte-1dfubxi"></rect><rect transform="translate(100, 160)" width="7" height="7" style="opacity: 1" class="svelte-1dfubxi"></rect><rect transform="translate(110, 160)" width="7" height="7" style="opacity: 1" class="svelte-1dfubxi marked"></rect><rect transform="translate(120, 160)" width="7" height="7" style="opacity: 1" class="svelte-1dfubxi marked"></rect><rect transform="translate(130, 160)" width="7" height="7" style="opacity: 1" class="svelte-1dfubxi marked"></rect><rect transform="translate(140, 160)" width="7" height="7" style="opacity: 1" class="svelte-1dfubxi marked"></rect><rect transform="translate(150, 160)" width="7" height="7" style="opacity: 1" class="svelte-1dfubxi marked"></rect><rect transform="translate(160, 160)" width="7" height="7" style="opacity: 1" class="svelte-1dfubxi marked"></rect><rect transform="translate(170, 160)" width="7" height="7" style="opacity: 1" class="svelte-1dfubxi"></rect><rect transform="translate(180, 160)" width="7" height="7" style="opacity: 1" class="svelte-1dfubxi"></rect><rect transform="translate(190, 160)" width="7" height="7" style="opacity: 1" class="svelte-1dfubxi"></rect><rect transform="translate(0, 170)" width="7" height="7" style="opacity: 1" class="svelte-1dfubxi"></rect><rect transform="translate(10, 170)" width="7" height="7" style="opacity: 1" class="svelte-1dfubxi"></rect><rect transform="translate(20, 170)" width="7" height="7" style="opacity: 1" class="svelte-1dfubxi"></rect><rect transform="translate(30, 170)" width="7" height="7" style="opacity: 1" class="svelte-1dfubxi"></rect><rect transform="translate(40, 170)" width="7" height="7" style="opacity: 1" class="svelte-1dfubxi"></rect><rect transform="translate(50, 170)" width="7" height="7" style="opacity: 1" class="svelte-1dfubxi"></rect><rect transform="translate(60, 170)" width="7" height="7" style="opacity: 1" class="svelte-1dfubxi"></rect><rect transform="translate(70, 170)" width="7" height="7" style="opacity: 1" class="svelte-1dfubxi"></rect><rect transform="translate(80, 170)" width="7" height="7" style="opacity: 1" class="svelte-1dfubxi"></rect><rect transform="translate(90, 170)" width="7" height="7" style="opacity: 1" class="svelte-1dfubxi"></rect><rect transform="translate(100, 170)" width="7" height="7" style="opacity: 1" class="svelte-1dfubxi"></rect><rect transform="translate(110, 170)" width="7" height="7" style="opacity: 1" class="svelte-1dfubxi"></rect><rect transform="translate(120, 170)" width="7" height="7" style="opacity: 1" class="svelte-1dfubxi"></rect><rect transform="translate(130, 170)" width="7" height="7" style="opacity: 1" class="svelte-1dfubxi"></rect><rect transform="translate(140, 170)" width="7" height="7" style="opacity: 1" class="svelte-1dfubxi"></rect><rect transform="translate(150, 170)" width="7" height="7" style="opacity: 1" class="svelte-1dfubxi"></rect><rect transform="translate(160, 170)" width="7" height="7" style="opacity: 1" class="svelte-1dfubxi"></rect><rect transform="translate(170, 170)" width="7" height="7" style="opacity: 1" class="svelte-1dfubxi"></rect><rect transform="translate(180, 170)" width="7" height="7" style="opacity: 1" class="svelte-1dfubxi"></rect><rect transform="translate(190, 170)" width="7" height="7" style="opacity: 1" class="svelte-1dfubxi"></rect><rect transform="translate(0, 180)" width="7" height="7" style="opacity: 1" class="svelte-1dfubxi"></rect><rect transform="translate(10, 180)" width="7" height="7" style="opacity: 1" class="svelte-1dfubxi"></rect><rect transform="translate(20, 180)" width="7" height="7" style="opacity: 1" class="svelte-1dfubxi"></rect><rect transform="translate(30, 180)" width="7" height="7" style="opacity: 1" class="svelte-1dfubxi"></rect><rect transform="translate(40, 180)" width="7" height="7" style="opacity: 1" class="svelte-1dfubxi"></rect><rect transform="translate(50, 180)" width="7" height="7" style="opacity: 1" class="svelte-1dfubxi"></rect><rect transform="translate(60, 180)" width="7" height="7" style="opacity: 1" class="svelte-1dfubxi"></rect><rect transform="translate(70, 180)" width="7" height="7" style="opacity: 1" class="svelte-1dfubxi"></rect><rect transform="translate(80, 180)" width="7" height="7" style="opacity: 1" class="svelte-1dfubxi"></rect><rect transform="translate(90, 180)" width="7" height="7" style="opacity: 1" class="svelte-1dfubxi"></rect><rect transform="translate(100, 180)" width="7" height="7" style="opacity: 1" class="svelte-1dfubxi"></rect><rect transform="translate(110, 180)" width="7" height="7" style="opacity: 1" class="svelte-1dfubxi"></rect><rect transform="translate(120, 180)" width="7" height="7" style="opacity: 1" class="svelte-1dfubxi"></rect><rect transform="translate(130, 180)" width="7" height="7" style="opacity: 1" class="svelte-1dfubxi"></rect><rect transform="translate(140, 180)" width="7" height="7" style="opacity: 1" class="svelte-1dfubxi"></rect><rect transform="translate(150, 180)" width="7" height="7" style="opacity: 1" class="svelte-1dfubxi"></rect><rect transform="translate(160, 180)" width="7" height="7" style="opacity: 1" class="svelte-1dfubxi"></rect><rect transform="translate(170, 180)" width="7" height="7" style="opacity: 1" class="svelte-1dfubxi"></rect><rect transform="translate(180, 180)" width="7" height="7" style="opacity: 1" class="svelte-1dfubxi"></rect><rect transform="translate(190, 180)" width="7" height="7" style="opacity: 1" class="svelte-1dfubxi"></rect><rect transform="translate(0, 190)" width="7" height="7" style="opacity: 1" class="svelte-1dfubxi"></rect><rect transform="translate(10, 190)" width="7" height="7" style="opacity: 1" class="svelte-1dfubxi"></rect><rect transform="translate(20, 190)" width="7" height="7" style="opacity: 1" class="svelte-1dfubxi"></rect><rect transform="translate(30, 190)" width="7" height="7" style="opacity: 1" class="svelte-1dfubxi"></rect><rect transform="translate(40, 190)" width="7" height="7" style="opacity: 1" class="svelte-1dfubxi"></rect><rect transform="translate(50, 190)" width="7" height="7" style="opacity: 1" class="svelte-1dfubxi"></rect><rect transform="translate(60, 190)" width="7" height="7" style="opacity: 1" class="svelte-1dfubxi"></rect><rect transform="translate(70, 190)" width="7" height="7" style="opacity: 1" class="svelte-1dfubxi"></rect><rect transform="translate(80, 190)" width="7" height="7" style="opacity: 1" class="svelte-1dfubxi"></rect><rect transform="translate(90, 190)" width="7" height="7" style="opacity: 1" class="svelte-1dfubxi"></rect><rect transform="translate(100, 190)" width="7" height="7" style="opacity: 1" class="svelte-1dfubxi"></rect><rect transform="translate(110, 190)" width="7" height="7" style="opacity: 1" class="svelte-1dfubxi"></rect><rect transform="translate(120, 190)" width="7" height="7" style="opacity: 1" class="svelte-1dfubxi"></rect><rect transform="translate(130, 190)" width="7" height="7" style="opacity: 1" class="svelte-1dfubxi"></rect><rect transform="translate(140, 190)" width="7" height="7" style="opacity: 1" class="svelte-1dfubxi"></rect><rect transform="translate(150, 190)" width="7" height="7" style="opacity: 1" class="svelte-1dfubxi"></rect><rect transform="translate(160, 190)" width="7" height="7" style="opacity: 1" class="svelte-1dfubxi"></rect><rect transform="translate(170, 190)" width="7" height="7" style="opacity: 1" class="svelte-1dfubxi"></rect><rect transform="translate(180, 190)" width="7" height="7" style="opacity: 1" class="svelte-1dfubxi"></rect><rect transform="translate(190, 190)" width="7" height="7" style="opacity: 1" class="svelte-1dfubxi"></rect></g></svg>